<svg xmlns="http://www.w3.org/2000/svg" xmlns:xlink="http://www.w3.org/1999/xlink" xmlns:serif="http://www.serif.com/" viewBox="0 0 64 80" version="1.1" xml:space="preserve" style="" x="0px" y="0px" fill-rule="evenodd" clip-rule="evenodd" stroke-linejoin="round" stroke-miterlimit="2"><g transform="matrix(1,0,0,1,-342,-399)"><g serif:id="landing page" transform="matrix(1,0,0,1,-2280,399)"><rect x="2622" y="0" width="64" height="64" style="" fill="none"/><g transform="matrix(1,0,0,1,2621,-99)"><path d="M22,159L43,159C43.552,159 44,158.552 44,158C44,157.448 43.552,157 43,157L22,157C21.448,157 21,157.448 21,158C21,158.552 21.448,159 22,159Z"/></g><g transform="matrix(1,0,0,1,2280,-399)"><rect x="369" y="449" width="10" height="8"/></g><g transform="matrix(1,0,0,1,2280,-399)"><path d="M400,439L348,439L348,444C348,444.796 348.316,445.559 348.879,446.121C349.441,446.684 350.204,447 351,447C361,447 387,447 397,447C397.796,447 398.559,446.684 399.121,446.121C399.684,445.559 400,444.796 400,444L400,439ZM374,441C372.896,441 372,441.896 372,443C372,444.104 372.896,445 374,445C375.104,445 376,444.104 376,443C376,441.896 375.104,441 374,441Z"/></g><g transform="matrix(1,0,0,1,2280,-399)"><path d="M353,410L351,410C349.343,410 348,411.343 348,413L348,437L400,437L400,413C400,411.343 398.657,410 397,410L395,410L395,432C395,433.657 393.657,435 392,435C385.172,435 362.828,435 356,435C354.343,435 353,433.657 353,432L353,410Z"/></g><g transform="matrix(1,0,0,1,2280,-399)"><rect x="378" y="427" width="11" height="2"/></g><g transform="matrix(1,0,0,1,2280,-399)"><rect x="360" y="419" width="9" height="10"/></g><g transform="matrix(1,0,0,1,2280,-399)"><path d="M393,415L355,415L355,432C355,432.552 355.448,433 356,433C362.828,433 385.172,433 392,433C392.552,433 393,432.552 393,432L393,415ZM391,426C391,425.448 390.552,425 390,425L377,425C376.448,425 376,425.448 376,426L376,430C376,430.552 376.448,431 377,431L390,431C390.552,431 391,430.552 391,430L391,426ZM371,418C371,417.448 370.552,417 370,417L359,417C358.448,417 358,417.448 358,418L358,430C358,430.552 358.448,431 359,431L370,431C370.552,431 371,430.552 371,430L371,418ZM391,418C391,417.448 390.552,417 390,417L377,417C376.448,417 376,417.448 376,418L376,422C376,422.552 376.448,423 377,423L390,423C390.552,423 391,422.552 391,422L391,418Z"/></g><g transform="matrix(1,0,0,1,2280,-399)"><rect x="378" y="419" width="11" height="2"/></g><g transform="matrix(1,0,0,1,2280,-399)"><path d="M393,413L393,406C393,405.448 392.552,405 392,405C385.172,405 362.828,405 356,405C355.448,405 355,405.448 355,406L355,413L393,413ZM389,407C387.896,407 387,407.896 387,409C387,410.104 387.896,411 389,411C390.104,411 391,410.104 391,409C391,407.896 390.104,407 389,407ZM383,407C381.896,407 381,407.896 381,409C381,410.104 381.896,411 383,411C384.104,411 385,410.104 385,409C385,407.896 384.104,407 383,407ZM377,407C375.896,407 375,407.896 375,409C375,410.104 375.896,411 377,411C378.104,411 379,410.104 379,409C379,407.896 378.104,407 377,407ZM370,408L358,408C357.448,408 357,408.448 357,409C357,409.552 357.448,410 358,410L370,410C370.552,410 371,409.552 371,409C371,408.448 370.552,408 370,408Z"/></g></g></g></svg>