<svg xmlns="http://www.w3.org/2000/svg" xmlns:xlink="http://www.w3.org/1999/xlink" version="1.1" x="0px" y="0px" viewBox="0 0 55 112.5" enable-background="new 0 0 55 90" xml:space="preserve"><g><path d="M44.191,2.91H10.414c-2.206,0-3.994,2.118-3.994,4.729v74c0,2.613,1.789,4.729,3.994,4.729h33.779   c2.205,0,3.992-2.116,3.994-4.729v-74C48.188,5.027,46.398,2.91,44.191,2.91z M27.303,82.486c-1.377,0-2.493-1.116-2.493-2.493   s1.116-2.493,2.493-2.493c1.376,0,2.493,1.116,2.493,2.493S28.68,82.486,27.303,82.486z M44.801,73H9.805V8.311h34.996V73z"/><path d="M15.84,49.878c0.012,0.039,0.021,0.08,0.037,0.12c0.014,0.034,0.034,0.066,0.053,0.101c0.019,0.03,0.03,0.063,0.052,0.093   c0.038,0.057,0.081,0.109,0.13,0.16c0.004,0.004,0.006,0.009,0.01,0.013c0.006,0.006,0.013,0.009,0.018,0.015   c0.049,0.046,0.1,0.09,0.155,0.127c0.03,0.021,0.064,0.035,0.098,0.053c0.032,0.019,0.063,0.037,0.097,0.053   c0.041,0.016,0.084,0.026,0.125,0.037c0.03,0.011,0.058,0.021,0.088,0.027c0.072,0.015,0.148,0.022,0.225,0.021h6.726   c0.626,0,1.134-0.508,1.134-1.134c0.001-0.261-0.089-0.497-0.237-0.689l0.002-0.002l-0.025-0.025   c-0.046-0.057-0.1-0.109-0.157-0.157l-2.484-2.483l4.572-4.57c0.442-0.442,0.442-1.159-0.001-1.604   c-0.443-0.443-1.159-0.443-1.603,0l-4.57,4.569l-2.484-2.483c-0.046-0.058-0.099-0.109-0.156-0.155l-0.016-0.018l-0.003,0.002   c-0.192-0.152-0.434-0.246-0.698-0.246c-0.626-0.001-1.134,0.507-1.134,1.134v6.729c0.001,0.073,0.009,0.148,0.022,0.222   C15.818,49.817,15.832,49.848,15.84,49.878z"/><path d="M29.759,38.457l4.568-4.568l2.485,2.482c0.047,0.059,0.099,0.11,0.157,0.157l0.017,0.017l0.002-0.002   c0.192,0.152,0.433,0.246,0.696,0.246c0.627,0.001,1.135-0.506,1.135-1.134v-6.728c0-0.074-0.008-0.149-0.022-0.222   c-0.006-0.033-0.019-0.062-0.027-0.094c-0.011-0.039-0.02-0.08-0.036-0.119c-0.015-0.035-0.034-0.067-0.053-0.1   c-0.02-0.031-0.03-0.064-0.052-0.094c-0.038-0.057-0.082-0.109-0.13-0.16c-0.005-0.003-0.007-0.009-0.011-0.013   c-0.007-0.005-0.013-0.008-0.018-0.014c-0.049-0.046-0.1-0.09-0.154-0.126c-0.032-0.022-0.065-0.037-0.099-0.053   c-0.032-0.018-0.063-0.039-0.097-0.052c-0.04-0.017-0.084-0.026-0.126-0.038c-0.029-0.01-0.057-0.021-0.088-0.027   c-0.072-0.015-0.148-0.022-0.223-0.022l-6.726,0.001c-0.626-0.001-1.134,0.507-1.134,1.134c-0.002,0.26,0.09,0.497,0.236,0.688   l-0.002,0.002l0.025,0.025c0.047,0.058,0.1,0.11,0.156,0.157l2.484,2.482l-4.572,4.571c-0.442,0.442-0.442,1.16,0.002,1.603   C28.599,38.901,29.315,38.901,29.759,38.457z"/><path d="M37.937,50.709c0.039-0.012,0.08-0.021,0.12-0.037c0.034-0.014,0.066-0.034,0.101-0.053c0.03-0.019,0.063-0.03,0.093-0.052   c0.057-0.038,0.109-0.081,0.16-0.13c0.004-0.004,0.009-0.006,0.013-0.01c0.006-0.006,0.009-0.013,0.015-0.018   c0.046-0.049,0.09-0.1,0.127-0.155c0.021-0.03,0.035-0.064,0.053-0.098c0.019-0.032,0.037-0.063,0.053-0.097   c0.016-0.041,0.026-0.084,0.037-0.125c0.011-0.03,0.021-0.058,0.027-0.088c0.015-0.072,0.022-0.148,0.021-0.225v-6.726   c0-0.626-0.508-1.134-1.134-1.134c-0.261-0.001-0.497,0.089-0.689,0.237l-0.002-0.002l-0.025,0.025   c-0.057,0.046-0.109,0.1-0.157,0.157l-2.483,2.484l-4.57-4.572c-0.442-0.442-1.159-0.442-1.604,0.001   c-0.443,0.443-0.443,1.159,0,1.603l4.569,4.57l-2.483,2.484c-0.058,0.046-0.109,0.099-0.155,0.156l-0.018,0.016l0.002,0.003   c-0.152,0.192-0.246,0.434-0.246,0.698c-0.001,0.626,0.507,1.134,1.134,1.134h6.729c0.073-0.001,0.148-0.009,0.222-0.022   C37.876,50.73,37.906,50.717,37.937,50.709z"/><path d="M26.516,36.79l-4.568-4.568l2.482-2.485c0.059-0.047,0.11-0.099,0.157-0.157l0.017-0.017l-0.002-0.002   c0.152-0.192,0.246-0.433,0.246-0.696c0.001-0.627-0.506-1.135-1.134-1.135h-6.728c-0.074,0-0.149,0.008-0.222,0.022   c-0.033,0.006-0.062,0.019-0.094,0.027c-0.039,0.011-0.08,0.02-0.119,0.036c-0.035,0.015-0.067,0.034-0.1,0.053   c-0.031,0.02-0.064,0.03-0.094,0.052c-0.057,0.038-0.109,0.082-0.16,0.13c-0.003,0.005-0.009,0.007-0.013,0.011   c-0.005,0.007-0.008,0.013-0.014,0.018c-0.046,0.049-0.09,0.1-0.126,0.154c-0.022,0.032-0.037,0.065-0.053,0.099   c-0.018,0.032-0.039,0.063-0.052,0.097c-0.017,0.04-0.026,0.084-0.038,0.126c-0.01,0.029-0.021,0.057-0.027,0.088   c-0.015,0.072-0.022,0.148-0.022,0.223l0.001,6.726c-0.001,0.626,0.507,1.134,1.134,1.134c0.26,0.002,0.497-0.09,0.688-0.236   l0.002,0.002l0.025-0.025c0.058-0.047,0.11-0.1,0.157-0.156l2.482-2.484l4.571,4.572c0.442,0.442,1.16,0.442,1.603-0.002   C26.96,37.95,26.96,37.233,26.516,36.79z"/></g><text x="0" y="105" fill="#000000" font-size="5px" font-weight="bold" font-family="'Helvetica Neue', Helvetica, Arial-Unicode, Arial, Sans-serif">Created by Jonathan Li</text><text x="0" y="110" fill="#000000" font-size="5px" font-weight="bold" font-family="'Helvetica Neue', Helvetica, Arial-Unicode, Arial, Sans-serif">from the Noun Project</text></svg>